grf
version=1
nRows=16
nColumns=46
inDegrees=yes
endheader
time	ground_force_1_vx	ground_force_1_vy	ground_force_1_vz	ground_force_1_px	ground_force_1_py	ground_force_1_pz	ground_moment_1_mx	ground_moment_1_my	ground_moment_1_mz	ground_force_2_vx	ground_force_2_vy	ground_force_2_vz	ground_force_2_px	ground_force_2_py	ground_force_2_pz	ground_moment_2_mx	ground_moment_2_my	ground_moment_2_mz	ground_force_3_vx	ground_force_3_vy	ground_force_3_vz	ground_force_3_px	ground_force_3_py	ground_force_3_pz	ground_moment_3_mx	ground_moment_3_my	ground_moment_3_mz	ground_force_4_vx	ground_force_4_vy	ground_force_4_vz	ground_force_4_px	ground_force_4_py	ground_force_4_pz	ground_moment_4_mx	ground_moment_4_my	ground_moment_4_mz	ground_force_5_vx	ground_force_5_vy	ground_force_5_vz	ground_force_5_px	ground_force_5_py	ground_force_5_pz	ground_moment_5_mx	ground_moment_5_my	ground_moment_5_mz
0.465000	0.000000	0.000000	0.000000	0.000000	0.000000	0.000000	0.000000	0.000000	0.000000	0.000000	0.000000	0.000000	0.000000	0.000000	0.000000	0.000000	0.000000	0.000000	0.000000	0.000000	0.000000	0.000000	0.000000	0.000000	0.000000	0.000000	0.000000	7.533693	433.447083	-50.735872	0.199283	0.000000	-1.043589	0.000000	3.035837	0.000000	-2.926393	459.200470	49.005669	0.227525	0.000000	-1.406697	-0.000000	-2.751892	-0.000000
0.465500	0.000000	0.000000	0.000000	0.000000	0.000000	0.000000	0.000000	0.000000	0.000000	0.000000	0.000000	0.000000	0.000000	0.000000	0.000000	0.000000	0.000000	0.000000	0.000000	0.000000	0.000000	0.000000	0.000000	0.000000	0.000000	0.000000	0.000000	7.129541	432.645691	-50.976670	0.199514	0.000000	-1.043783	0.000000	2.930932	0.000000	-3.087860	458.401428	49.327072	0.227138	0.000000	-1.406460	0.000000	-2.804324	-0.000000
0.466000	0.000000	0.000000	0.000000	0.000000	0.000000	0.000000	0.000000	0.000000	0.000000	0.000000	0.000000	0.000000	0.000000	0.000000	0.000000	0.000000	0.000000	0.000000	0.000000	0.000000	0.000000	0.000000	0.000000	0.000000	0.000000	0.000000	0.000000	6.725390	431.844299	-51.217473	0.199747	0.000000	-1.043977	0.000000	2.825720	0.000000	-3.249328	457.602356	49.648479	0.226750	0.000000	-1.406222	-0.000000	-2.856992	-0.000000
0.466500	0.000000	0.000000	0.000000	0.000000	0.000000	0.000000	0.000000	0.000000	0.000000	0.000000	0.000000	0.000000	0.000000	0.000000	0.000000	0.000000	0.000000	0.000000	0.000000	0.000000	0.000000	0.000000	0.000000	0.000000	0.000000	0.000000	0.000000	6.965410	432.326965	-50.815118	0.199498	0.000000	-1.044012	0.000000	2.990820	0.000000	-3.571244	458.081360	49.648479	0.226881	0.000000	-1.406307	0.000000	-2.807846	-0.000000
0.467000	0.000000	0.000000	0.000000	0.000000	0.000000	0.000000	0.000000	0.000000	0.000000	0.000000	0.000000	0.000000	0.000000	0.000000	0.000000	0.000000	0.000000	0.000000	0.000000	0.000000	0.000000	0.000000	0.000000	0.000000	0.000000	0.000000	0.000000	7.205430	432.809662	-50.412763	0.199250	0.000000	-1.044047	0.000000	3.155708	0.000000	-3.893160	458.560333	49.648479	0.227011	0.000000	-1.406393	0.000000	-2.758768	-0.000000
0.467500	0.000000	0.000000	0.000000	0.000000	0.000000	0.000000	0.000000	0.000000	0.000000	0.000000	0.000000	0.000000	0.000000	0.000000	0.000000	0.000000	0.000000	0.000000	0.000000	0.000000	0.000000	0.000000	0.000000	0.000000	0.000000	0.000000	0.000000	7.287496	432.326630	-50.574826	0.199375	0.000000	-1.044597	0.000000	3.153758	0.000000	-3.651850	458.400879	49.728748	0.227000	0.000000	-1.406260	0.000000	-2.795295	-0.000000
0.468000	0.000000	0.000000	0.000000	0.000000	0.000000	0.000000	0.000000	0.000000	0.000000	0.000000	0.000000	0.000000	0.000000	0.000000	0.000000	0.000000	0.000000	0.000000	0.000000	0.000000	0.000000	0.000000	0.000000	0.000000	0.000000	0.000000	0.000000	7.369561	431.843597	-50.736890	0.199501	0.000000	-1.045148	0.000000	3.151852	0.000000	-3.410541	458.241455	49.809017	0.226989	0.000000	-1.406128	0.000000	-2.831888	-0.000000
0.468500	0.000000	0.000000	0.000000	0.000000	0.000000	0.000000	0.000000	0.000000	0.000000	0.000000	0.000000	0.000000	0.000000	0.000000	0.000000	0.000000	0.000000	0.000000	0.000000	0.000000	0.000000	0.000000	0.000000	0.000000	0.000000	0.000000	0.000000	7.369561	432.162170	-50.736890	0.199813	0.000000	-1.044438	0.000000	3.130819	0.000000	-3.572009	458.082642	49.808846	0.227036	0.000000	-1.406445	0.000000	-2.854235	-0.000000
0.469000	0.000000	0.000000	0.000000	0.000000	0.000000	0.000000	0.000000	0.000000	0.000000	0.000000	0.000000	0.000000	0.000000	0.000000	0.000000	0.000000	0.000000	0.000000	0.000000	0.000000	0.000000	0.000000	0.000000	0.000000	0.000000	0.000000	0.000000	7.369561	432.480713	-50.736890	0.200123	0.000000	-1.043729	0.000000	3.109818	0.000000	-3.733477	457.923859	49.808678	0.227083	0.000000	-1.406762	-0.000000	-2.876684	-0.000000
0.469500	0.000000	0.000000	0.000000	0.000000	0.000000	0.000000	0.000000	0.000000	0.000000	0.000000	0.000000	0.000000	0.000000	0.000000	0.000000	0.000000	0.000000	0.000000	0.000000	0.000000	0.000000	0.000000	0.000000	0.000000	0.000000	0.000000	0.000000	7.533692	432.320099	-50.656625	0.200101	0.000000	-1.043693	0.000000	3.043387	0.000000	-3.410796	458.720459	49.889622	0.227260	0.000000	-1.406941	0.000000	-2.880073	-0.000000
0.470000	0.000000	0.000000	0.000000	0.000000	0.000000	0.000000	0.000000	0.000000	0.000000	0.000000	0.000000	0.000000	0.000000	0.000000	0.000000	0.000000	0.000000	0.000000	0.000000	0.000000	0.000000	0.000000	0.000000	0.000000	0.000000	0.000000	0.000000	7.697823	432.159485	-50.576356	0.200079	0.000000	-1.043657	0.000000	2.976942	0.000000	-3.088115	459.517029	49.970566	0.227437	0.000000	-1.407119	0.000000	-2.883348	-0.000000
0.470500	0.000000	0.000000	0.000000	0.000000	0.000000	0.000000	0.000000	0.000000	0.000000	0.000000	0.000000	0.000000	0.000000	0.000000	0.000000	0.000000	0.000000	0.000000	0.000000	0.000000	0.000000	0.000000	0.000000	0.000000	0.000000	0.000000	0.000000	7.856550	432.318909	-50.656114	0.200055	0.000000	-1.043848	0.000000	3.099575	0.000000	-3.249328	458.879578	49.890297	0.227242	0.000000	-1.407207	-0.000000	-2.916020	-0.000000
0.471000	0.000000	0.000000	0.000000	0.000000	0.000000	0.000000	0.000000	0.000000	0.000000	0.000000	0.000000	0.000000	0.000000	0.000000	0.000000	0.000000	0.000000	0.000000	0.000000	0.000000	0.000000	0.000000	0.000000	0.000000	0.000000	0.000000	0.000000	8.015276	432.478333	-50.735872	0.200032	0.000000	-1.044039	0.000000	3.222271	0.000000	-3.410541	458.242096	49.810032	0.227046	0.000000	-1.407296	-0.000000	-2.948718	-0.000000
0.471500	0.000000	0.000000	0.000000	0.000000	0.000000	0.000000	0.000000	0.000000	0.000000	0.000000	0.000000	0.000000	0.000000	0.000000	0.000000	0.000000	0.000000	0.000000	0.000000	0.000000	0.000000	0.000000	0.000000	0.000000	0.000000	0.000000	0.000000	7.692418	432.480682	-50.574826	0.199844	0.000000	-1.044018	0.000000	3.159475	0.000000	-3.330189	458.879395	49.889961	0.227145	0.000000	-1.406910	0.000000	-2.918861	-0.000000
0.472000	0.000000	0.000000	0.000000	0.000000	0.000000	0.000000	0.000000	0.000000	0.000000	0.000000	0.000000	0.000000	0.000000	0.000000	0.000000	0.000000	0.000000	0.000000	0.000000	0.000000	0.000000	0.000000	0.000000	0.000000	0.000000	0.000000	0.000000	7.369561	432.483032	-50.413781	0.199656	0.000000	-1.043997	0.000000	3.096632	0.000000	-3.249838	459.516693	49.969891	0.227244	0.000000	-1.406526	0.000000	-2.889067	-0.000000
0.472500	0.000000	0.000000	0.000000	0.000000	0.000000	0.000000	0.000000	0.000000	0.000000	0.000000	0.000000	0.000000	0.000000	0.000000	0.000000	0.000000	0.000000	0.000000	0.000000	0.000000	0.000000	0.000000	0.000000	0.000000	0.000000	0.000000	0.000000	7.368789	432.164154	-50.333005	0.199577	0.000000	-1.043778	0.000000	3.121523	0.000000	-3.169741	459.994202	50.050327	0.227055	0.000000	-1.406871	0.000000	-2.966040	-0.000000
